<?xml version="1.0" standalone="no"?>
<!DOCTYPE svg PUBLIC "-//W3C//DTD SVG 20010904//EN"
 "http://www.w3.org/TR/2001/REC-SVG-20010904/DTD/svg10.dtd">
<svg version="1.0" xmlns="http://www.w3.org/2000/svg"
 width="260.000000pt" height="260.000000pt" viewBox="0 0 260.000000 260.000000"
 preserveAspectRatio="xMidYMid meet">
<metadata>
Created by potrace 1.11, written by Peter Selinger 2001-2013
</metadata>
<g transform="translate(0.000000,260.000000) scale(0.100000,-0.100000)"
fill="#000000" stroke="none">
<path d="M1125 2590 c-436 -69 -803 -333 -989 -714 -96 -197 -131 -348 -131
-576 0 -232 35 -382 136 -585 174 -351 506 -604 910 -691 118 -26 380 -26 498
0 404 87 736 340 910 691 101 203 136 353 136 585 0 232 -35 382 -136 585
-171 345 -496 596 -889 686 -99 23 -351 33 -445 19z m-178 -540 l163 0 0 -77
0 -76 -235 7 -235 7 0 -206 0 -205 83 0 c45 0 146 -3 225 -7 l142 -6 0 -70 0
-69 -225 4 -225 3 0 -232 0 -233 83 -1 c45 -1 156 -5 247 -8 l165 -6 0 -70 0
-70 -270 3 c-148 1 -296 5 -327 8 l-58 6 0 656 0 655 152 -6 c83 -4 225 -7
315 -7z m902 -117 c96 -313 361 -1204 361 -1213 0 -6 -31 -10 -78 -10 l-79 0
-63 210 -63 210 -203 0 -203 0 -20 -67 c-11 -38 -37 -126 -58 -198 l-39 -130
-81 -3 -81 -3 124 408 c68 224 156 517 196 650 l73 243 92 0 92 0 30 -97z"/>
<path d="M1706 1794 c-10 -43 -48 -177 -84 -297 -36 -119 -63 -219 -61 -221 2
-2 77 -6 167 -9 109 -4 162 -2 162 5 0 5 -27 101 -60 212 -33 112 -70 245 -83
296 l-23 93 -18 -79z"/>
</g>
</svg>
